<?xml version="1.0" encoding="UTF-8" standalone="no"?>
<svg
   xmlns:dc="http://purl.org/dc/elements/1.1/"
   xmlns:cc="http://creativecommons.org/ns#"
   xmlns:rdf="http://www.w3.org/1999/02/22-rdf-syntax-ns#"
   xmlns:svg="http://www.w3.org/2000/svg"
   xmlns="http://www.w3.org/2000/svg"
   xmlns:sodipodi="http://sodipodi.sourceforge.net/DTD/sodipodi-0.dtd"
   xmlns:inkscape="http://www.inkscape.org/namespaces/inkscape"
   width="4096"
   height="4096"
   version="1.1"
   xml:space="preserve"
   style="clip-rule:evenodd;fill-rule:evenodd"
   id="svg6"
   sodipodi:docname="C-E-logo.svg"
   inkscape:export-filename="C:\Users\alex\sites\C-E-logo-0.png"
   inkscape:export-xdpi="96"
   inkscape:export-ydpi="96"
   inkscape:version="0.92.1 r15371"><metadata
     id="metadata12"><rdf:RDF><cc:Work
         rdf:about=""><dc:format>image/svg+xml</dc:format><dc:type
           rdf:resource="http://purl.org/dc/dcmitype/StillImage" /><dc:title></dc:title></cc:Work></rdf:RDF></metadata><defs
     id="defs10" /><sodipodi:namedview
     pagecolor="#ffffff"
     bordercolor="#666666"
     borderopacity="1"
     objecttolerance="10"
     gridtolerance="10"
     guidetolerance="10"
     inkscape:pageopacity="0"
     inkscape:pageshadow="2"
     inkscape:window-width="1600"
     inkscape:window-height="838"
     id="namedview8"
     showgrid="false"
     inkscape:zoom="0.052149125"
     inkscape:cx="5285.4494"
     inkscape:cy="1972.146"
     inkscape:window-x="-8"
     inkscape:window-y="-8"
     inkscape:window-maximized="1"
     inkscape:current-layer="svg6" /><path
     d="m 1759.0289,3006.0829 a 962.90997,962.90997 0 0 1 -96.291,4.8271 962.90997,962.90997 0 0 1 0,-1925.8199 962.90997,962.90997 0 0 1 96.291,4.827 v 288.873 a 674.03698,674.03698 0 0 0 -96.291,-4.827 674.03698,674.03698 0 0 0 0,1348.0739 674.03698,674.03698 0 0 0 96.291,-4.8271 z"
     id="path2"
     inkscape:connector-curvature="0"
     style="fill:#000000;stroke-width:9.62909985"
     inkscape:export-filename="C:\Users\alex\sites\C-E-logo-4.png"
     inkscape:export-xdpi="14.243579"
     inkscape:export-ydpi="14.243579" /><path
     d="m 3395.9758,3006.0829 a 962.90997,962.90997 0 0 1 -96.291,4.8271 962.90997,962.90997 0 0 1 0,-1925.8199 962.90997,962.90997 0 0 1 96.291,4.827 v 288.873 a 674.03698,674.03698 0 0 0 -96.291,-4.827 674.03698,674.03698 0 0 0 -658.4351,529.6004 h 562.1441 v 288.873 h -562.1441 a 674.03698,674.03698 0 0 0 658.4351,529.6005 674.03698,674.03698 0 0 0 96.291,-4.8271 z"
     id="path4"
     inkscape:connector-curvature="0"
     style="fill:#000000;stroke-width:9.62909985"
     inkscape:export-filename="C:\Users\alex\sites\C-E-logo-4.png"
     inkscape:export-xdpi="14.243579"
     inkscape:export-ydpi="14.243579" /></svg>