<svg xmlns="http://www.w3.org/2000/svg" viewBox="0 0 230 162" width="230" height="162">
  <rect width="230" height="162" fill="#0E1117"/>
  <!-- Pine tree -->
  <polygon points="31,7 20,24 42,24" fill="#C49240"/>
  <polygon points="31,15 15,36 47,36" fill="#C49240"/>
  <polygon points="31,23 10,49 52,49" fill="#C49240"/>
  <rect x="27" y="49" width="8" height="8" fill="#C49240"/>
  <!-- Main house roof -->
  <rect x="65" y="13" width="90" height="7" rx="1" fill="#C49240"/>
  <!-- Main house body -->
  <rect x="69" y="20" width="82" height="37" fill="#C49240"/>
  <!-- Windows 3x2 -->
  <rect x="73" y="25" width="15" height="11" fill="#0E1117"/>
  <rect x="92" y="25" width="15" height="11" fill="#0E1117"/>
  <rect x="111" y="25" width="15" height="11" fill="#0E1117"/>
  <rect x="73" y="39" width="15" height="11" fill="#0E1117"/>
  <rect x="92" y="39" width="15" height="11" fill="#0E1117"/>
  <rect x="111" y="39" width="15" height="11" fill="#0E1117"/>
  <!-- Extension roof -->
  <rect x="149" y="24" width="62" height="7" rx="1" fill="#C49240"/>
  <!-- Extension body -->
  <rect x="151" y="31" width="58" height="26" fill="#C49240"/>
  <!-- Extension windows -->
  <rect x="154" y="36" width="22" height="16" fill="#0E1117"/>
  <rect x="181" y="36" width="22" height="16" fill="#0E1117"/>
  <!-- Ground line -->
  <line x1="10" y1="58" x2="220" y2="58" stroke="#C49240" stroke-width="1.2"/>
  <!-- Xylos -->
  <text x="115" y="102" text-anchor="middle" font-family="Georgia, serif" font-size="50" font-weight="400" fill="#C49240">Xylos</text>
  <line x1="34" y1="120" x2="74" y2="120" stroke="#C49240" stroke-width="0.8"/>
  <text x="115" y="124" text-anchor="middle" font-family="Arial, sans-serif" font-size="14" font-weight="300" fill="#C49240" letter-spacing="6">home</text>
  <line x1="156" y1="120" x2="196" y2="120" stroke="#C49240" stroke-width="0.8"/>
  <text x="115" y="147" text-anchor="middle" font-family="Arial, sans-serif" font-size="8" fill="#C49240" letter-spacing="2" opacity="0.6">CREAMOS ESPACIOS, CONSTRUIMOS VIDAS</text>
</svg>