<svg xmlns="http://www.w3.org/2000/svg" viewBox="0 0 210 58" width="210" height="58">
  <!-- Pine tree -->
  <polygon points="21,2 10,19 32,19" fill="#C49240"/>
  <polygon points="21,10 5,31 37,31" fill="#C49240"/>
  <polygon points="21,18 0,44 42,44" fill="#C49240"/>
  <rect x="17" y="44" width="8" height="8" fill="#C49240"/>
  <!-- Main house roof -->
  <rect x="55" y="8" width="90" height="7" rx="1" fill="#C49240"/>
  <!-- Main house body -->
  <rect x="59" y="15" width="82" height="37" fill="#C49240"/>
  <!-- Windows -->
  <rect x="63" y="20" width="15" height="11" fill="#1E2330"/>
  <rect x="82" y="20" width="15" height="11" fill="#1E2330"/>
  <rect x="101" y="20" width="15" height="11" fill="#1E2330"/>
  <rect x="63" y="34" width="15" height="11" fill="#1E2330"/>
  <rect x="82" y="34" width="15" height="11" fill="#1E2330"/>
  <rect x="101" y="34" width="15" height="11" fill="#1E2330"/>
  <!-- Extension roof -->
  <rect x="139" y="19" width="62" height="7" rx="1" fill="#C49240"/>
  <!-- Extension body -->
  <rect x="141" y="26" width="58" height="26" fill="#C49240"/>
  <!-- Extension windows -->
  <rect x="144" y="31" width="22" height="16" fill="#1E2330"/>
  <rect x="171" y="31" width="22" height="16" fill="#1E2330"/>
  <!-- Ground line -->
  <line x1="0" y1="53" x2="210" y2="53" stroke="#C49240" stroke-width="1.2"/>
</svg>