<svg xmlns="http://www.w3.org/2000/svg" viewBox="0 0 244 46" width="244" height="46">
  <!-- Isotipo escalado al 63% -->
  <g transform="translate(0,4) scale(0.63)">
    <polygon points="21,2 10,19 32,19" fill="#C49240"/>
    <polygon points="21,10 5,31 37,31" fill="#C49240"/>
    <polygon points="21,18 0,44 42,44" fill="#C49240"/>
    <rect x="17" y="44" width="8" height="8" fill="#C49240"/>
    <rect x="55" y="8" width="90" height="7" rx="1" fill="#C49240"/>
    <rect x="59" y="15" width="82" height="37" fill="#C49240"/>
    <rect x="63" y="20" width="15" height="11" fill="#0E1117"/>
    <rect x="82" y="20" width="15" height="11" fill="#0E1117"/>
    <rect x="101" y="20" width="15" height="11" fill="#0E1117"/>
    <rect x="63" y="34" width="15" height="11" fill="#0E1117"/>
    <rect x="82" y="34" width="15" height="11" fill="#0E1117"/>
    <rect x="101" y="34" width="15" height="11" fill="#0E1117"/>
    <rect x="139" y="19" width="62" height="7" rx="1" fill="#C49240"/>
    <rect x="141" y="26" width="58" height="26" fill="#C49240"/>
    <rect x="144" y="31" width="22" height="16" fill="#0E1117"/>
    <rect x="171" y="31" width="22" height="16" fill="#0E1117"/>
    <line x1="0" y1="53" x2="210" y2="53" stroke="#C49240" stroke-width="1.2"/>
  </g>
  <!-- Separador -->
  <line x1="138" y1="9" x2="138" y2="37" stroke="#C49240" stroke-width="0.5" opacity="0.35"/>
  <!-- Texto -->
  <text x="149" y="26" font-family="Georgia, serif" font-size="24" font-weight="400" fill="#C49240">Xylos</text>
  <text x="150" y="39" font-family="Arial, sans-serif" font-size="9.5" font-weight="300" fill="#C49240" letter-spacing="3" opacity="0.8">home</text>
</svg>